PathFileType	4	(X/Y/Z)	c:/Users/goper/Files/vsCode/490R/osim_files/C08/C08_Slow_04.trc
DataRate	CameraRate	NumFrames	NumMarkers	Units                	OrigDataRate	OrigDataStartFrame	OrigNumFrames
250.00	250.00	6	36	mm	250.0	2063	2750
                Frame#	Time	LPSIS			LASIS			LTH1			LTH2			LTH3			LTH4			LLFE			LMFE			LSH1			LSH2			LSH3			LSH4			LLMAL			LMMAL			LCAL			LMTP5			LTOE			LMTP1			RPSIS			RASIS			RTH1			RTH2			RTH3			RTH4			RLFE			RMFE			RSH1			RSH2			RSH3			RSH4			RLMAL			RMMAL			RCAL			RMTP1			RTOE			RMTP5		
		X1	Y1	Z1	X2	Y2	Z2	X3	Y3	Z3	X4	Y4	Z4	X5	Y5	Z5	X6	Y6	Z6	X7	Y7	Z7	X8	Y8	Z8	X9	Y9	Z9	X10	Y10	Z10	X11	Y11	Z11	X12	Y12	Z12	X13	Y13	Z13	X14	Y14	Z14	X15	Y15	Z15	X16	Y16	Z16	X17	Y17	Z17	X18	Y18	Z18	X19	Y19	Z19	X20	Y20	Z20	X21	Y21	Z21	X22	Y22	Z22	X23	Y23	Z23	X24	Y24	Z24	X25	Y25	Z25	X26	Y26	Z26	X27	Y27	Z27	X28	Y28	Z28	X29	Y29	Z29	X30	Y30	Z30	X31	Y31	Z31	X32	Y32	Z32	X33	Y33	Z33	X34	Y34	Z34	X35	Y35	Z35	X36	Y36	Z36

2063	8.24800	-3375.77026	1054.22754	182.27188	-3592.32300	1024.97314	273.48904	-3574.92383	748.74402	355.30392	-3604.31543	676.30115	347.85550	-3631.80737	606.98804	343.27737	-3679.97437	709.69427	336.45132	-3642.98315	560.53491	334.91501	-3675.65771	553.22321	209.32581	-3555.06177	486.07953	333.78494	0.00000	0.00000	0.00000	-3604.08008	455.43478	343.34641	-3583.77441	419.23648	344.19427	-3411.89038	194.15707	280.66772	-3455.76904	184.29050	204.04860	0.00000	0.00000	0.00000	-3477.59399	84.13299	326.31387	-3553.63794	77.54600	283.00677	-3523.89648	69.51852	226.16847	-3379.88916	1053.17700	123.48464	-3586.40210	1024.89478	36.29780	0.00000	0.00000	0.00000	-3523.28955	678.83783	2.33628	-3519.47241	600.92468	8.28366	-3595.74780	682.93195	31.45383	-3523.32275	528.13556	30.99289	0.00000	0.00000	0.00000	-3467.72827	446.86749	12.46615	-3472.74463	400.22363	5.60912	-3527.63647	443.97104	22.94265	-3523.18115	400.02185	21.05246	-3445.54712	98.12196	75.33202	-3476.48853	106.75710	160.84740	-3384.48608	81.77808	141.89841	0.00000	0.00000	0.00000	0.00000	0.00000	0.00000	-3568.48853	47.27069	36.31218
2064	8.25200	-3379.85278	1054.02930	183.86026	-3595.40283	1025.14685	273.32806	-3579.13428	749.12952	355.29358	-3608.74194	676.88782	347.75204	-3634.32983	606.60150	339.57529	-3684.21289	710.56598	335.72464	-3647.81641	561.27234	334.36676	-3679.70679	553.88788	208.78017	-3560.47485	485.16217	333.46075	0.00000	0.00000	0.00000	-3610.02197	455.38187	342.94821	-3590.29126	418.70822	343.82779	-3422.23657	190.79280	280.63617	-3466.29077	181.42140	204.15826	-3365.14868	197.89391	215.71536	-3489.93262	82.07138	326.67395	-3566.11816	76.77386	283.46710	-3536.59888	68.04848	226.65584	-3381.59521	1053.63452	122.39418	-3589.14136	1024.72449	36.19572	0.00000	0.00000	0.00000	-3524.94189	678.84094	2.35911	-3520.85449	600.88232	8.34116	-3596.72339	682.33032	31.09050	-3524.37500	528.01337	31.10697	0.00000	0.00000	0.00000	-3468.58374	446.98172	12.58111	-3472.91699	400.37628	5.66480	-3528.56372	443.99307	23.01330	-3523.94067	399.97751	21.07044	-3445.48584	98.05106	75.43404	-3476.59106	106.80112	160.90155	-3384.49341	81.89367	141.94112	0.00000	0.00000	0.00000	0.00000	0.00000	0.00000	-3568.48511	47.26241	36.30317
2065	8.25600	-3402.60303	1049.79517	178.31609	-3598.44580	1025.24109	273.17941	-3583.44580	749.56384	355.29910	-3613.12646	677.40668	347.60892	-3638.90723	607.21222	339.13873	-3688.37085	711.34222	334.97769	-3652.50464	561.90198	333.83795	-3683.77979	554.56244	208.21413	-3565.92090	484.19928	333.15543	0.00000	0.00000	0.00000	-3615.77734	455.15695	342.57007	-3596.84131	418.19043	343.53931	-3432.67871	187.40794	280.65689	-3476.89380	178.52222	204.27940	-3375.37183	193.21730	216.59492	-3502.36719	80.06317	327.03854	-3578.70898	76.07473	283.92438	-3549.44092	66.66899	227.12895	-3384.41504	1053.75476	122.60789	-3591.86255	1024.56274	36.07182	-3525.61255	755.53204	-16.65510	-3526.74561	678.95728	2.40605	-3522.32324	600.87445	8.37627	-3598.45996	682.66412	31.21953	-3525.59790	527.94751	31.23018	0.00000	0.00000	0.00000	-3469.54712	447.14963	12.71252	-3473.66846	400.50174	5.78140	-3529.48779	443.98926	23.09323	-3524.79614	399.98187	21.17204	-3451.59497	103.30152	74.69199	0.00000	0.00000	0.00000	-3382.20581	82.74815	141.66023	0.00000	0.00000	0.00000	0.00000	0.00000	0.00000	-3568.47681	47.24743	36.29792
2066	8.26000	0.00000	0.00000	0.00000	-3601.46729	1025.29565	273.05313	-3587.76855	749.99762	355.30273	-3617.39868	677.86163	347.37369	-3645.63989	608.88556	342.00433	-3692.48755	712.11316	334.26581	-3657.15991	562.51971	333.26663	-3687.70215	555.10034	207.59731	-3571.22290	483.09875	332.89273	0.00000	0.00000	0.00000	-3621.67017	455.02344	342.20975	-3603.32397	417.60052	343.18884	-3443.10156	183.94762	280.63620	-3487.60840	175.59048	204.36008	-3385.53589	188.54837	215.52414	-3514.82202	78.06382	327.37714	-3591.36060	75.41345	284.41623	-3562.38306	65.33258	227.58086	-3387.21338	1053.89453	122.88195	-3594.58691	1024.36035	35.93604	-3529.00146	756.08630	-16.46834	-3528.51294	678.92944	2.45329	-3523.81470	600.85773	8.48779	-3601.31689	683.00726	31.70438	-3526.68726	527.75519	31.43156	0.00000	0.00000	0.00000	-3470.48633	447.23877	12.83349	-3474.57275	400.64459	5.81955	-3530.45776	444.01141	23.20897	-3525.62036	399.93967	21.23857	-3451.71875	103.35479	74.75219	0.00000	0.00000	0.00000	-3382.25854	82.84715	141.70287	0.00000	0.00000	0.00000	0.00000	0.00000	0.00000	-3568.48486	47.23402	36.30770
2067	8.26400	-3387.37280	1054.68762	183.25804	-3604.49316	1025.30042	272.95740	-3593.30542	750.57349	358.57468	-3621.59912	678.26404	347.20377	-3647.02612	608.06781	339.24146	-3696.51709	712.79944	333.53186	-3661.67236	563.05304	332.71982	-3691.54639	555.55084	207.03909	-3576.46606	481.91489	332.68820	0.00000	0.00000	0.00000	-3627.32983	454.73483	341.85336	-3609.75146	416.96851	342.87982	-3453.64453	180.49533	280.62640	-3498.45752	172.70274	204.45259	-3393.42651	184.56232	215.08069	-3526.22803	76.71162	328.56339	-3604.04492	74.77834	284.85284	-3575.36841	64.01111	228.05621	-3390.28052	1053.89111	123.15820	-3597.32080	1024.12537	35.80292	-3530.99976	756.04541	-16.36940	-3530.25244	678.90247	2.49636	-3525.28662	600.74927	8.61227	-3603.03174	682.12476	31.53094	-3527.73462	527.50024	31.66766	0.00000	0.00000	0.00000	-3471.51758	447.37384	12.92693	-3475.41992	400.82141	5.85840	-3531.42139	444.00732	23.27041	-3526.49780	399.88666	21.32785	-3451.89624	103.44249	74.79948	-3476.82788	106.88318	161.06949	-3384.44604	82.31052	142.06190	0.00000	0.00000	0.00000	0.00000	0.00000	0.00000	-3568.50269	47.19748	36.29491
2068	8.26800	-3391.28809	1054.44836	184.82613	-3607.50342	1025.26697	272.87045	-3596.13403	750.67529	355.26562	-3625.74463	678.64844	347.00134	-3654.37378	609.90466	341.10034	-3700.51538	713.42572	332.79706	-3666.16577	563.56995	332.14471	-3695.33936	555.94897	206.46596	-3581.72876	480.72006	332.50934	0.00000	0.00000	0.00000	-3632.89307	454.36716	341.49454	-3616.15039	416.30560	342.57162	-3464.20752	177.02567	280.61304	-3509.29688	169.77121	204.57590	-3413.22974	177.03592	217.08026	-3538.85059	74.71822	328.87805	-3616.69751	74.14780	285.38150	-3588.30225	62.66360	228.58920	-3394.17847	1053.62793	124.75597	-3600.00269	1023.88995	35.64642	-3532.95459	755.93463	-16.28174	-3532.01587	678.85938	2.52879	-3526.83130	600.70459	8.77310	-3604.08521	681.23975	31.15711	-3528.96484	527.35168	31.90077	0.00000	0.00000	0.00000	-3472.47241	447.42218	13.05759	-3476.27148	400.89825	5.95916	-3532.39624	443.98233	23.36602	-3527.33716	399.82001	21.38504	-3452.05518	103.53281	74.82520	-3476.96289	106.94353	161.13979	-3384.38721	82.47070	142.09633	0.00000	0.00000	0.00000	0.00000	0.00000	0.00000	-3568.49048	47.17925	36.28291
